<svg data-v-423bf9ae="" xmlns="http://www.w3.org/2000/svg" viewBox="0 0 562 107" class="iconLeft"><!----><!----><!----><g data-v-423bf9ae="" id="5687d8bb-e80e-4b9a-99ff-6246bfa74a92" fill="#BB4E47" transform="matrix(4.838709354400635,0,0,4.838709354400635,121.89805603027344,5.736323356628418)"><path d="M2.07 13.50L2.07 8.88L7.81 8.88L7.81 13.50L8.72 13.50L8.72 3.82L7.81 3.82L7.81 8.01L2.07 8.01L2.07 3.82L1.19 3.82L1.19 13.50ZM10.07 15.90C10.26 15.97 10.68 16.04 10.99 16.04C11.75 16.04 12.38 15.85 12.87 15.05C13.24 14.45 13.54 13.68 13.75 13.17L16.46 6.51L15.54 6.51C13.79 10.88 13.51 11.59 13.24 12.32C12.99 11.68 12.75 11.09 10.77 6.51L9.80 6.51L12.77 13.27L12.60 13.65C12.40 14.11 12.14 14.62 11.97 14.83C11.77 15.09 11.47 15.26 11.02 15.26C10.81 15.26 10.46 15.20 10.23 15.12ZM18.40 16.03L18.40 12.21C18.80 13.05 19.66 13.66 21 13.66C22.89 13.66 24.25 12.35 24.25 9.98C24.25 7.69 23.00 6.33 21.17 6.33C19.73 6.33 18.75 7.10 18.40 7.95L18.40 6.51L17.56 6.51L17.56 16.03ZM18.38 9.95C18.38 8.16 19.50 7.08 20.97 7.08C22.36 7.08 23.38 8.13 23.38 10.00C23.38 11.91 22.27 12.88 20.93 12.88C19.49 12.88 18.38 12.05 18.38 9.95ZM31.98 11.38L31.15 11.20C30.90 12.15 30.06 12.88 28.80 12.88C27.76 12.88 26.28 12.32 26.26 10.19L32.00 10.19C32.00 7.62 30.79 6.33 28.73 6.33C26.87 6.33 25.37 7.71 25.37 9.97C25.37 12.19 26.60 13.66 28.77 13.66C30.48 13.66 31.64 12.71 31.98 11.38ZM26.26 9.51C26.40 7.91 27.47 7.11 28.71 7.11C30.38 7.11 31.01 8.19 31.11 9.51ZM34.47 13.50L34.47 9.95C34.47 9.14 34.55 8.60 34.80 8.15C35.07 7.67 35.62 7.13 36.46 7.13C36.69 7.13 36.95 7.17 37.16 7.22L37.32 6.43C37.09 6.36 36.78 6.30 36.53 6.30C35.36 6.30 34.65 7.11 34.47 7.94L34.47 6.51L33.63 6.51L33.63 13.50ZM49.38 10.25L48.45 10.12C48.20 11.80 47.21 12.84 45.26 12.84C42.91 12.84 41.80 10.98 41.80 8.69C41.80 6.61 42.77 4.48 45.40 4.48C47.29 4.48 48.24 5.70 48.41 7.01L49.32 6.90C49.20 5.38 48.02 3.64 45.42 3.64C42.20 3.64 40.87 6.17 40.87 8.71C40.87 11.61 42.48 13.66 45.26 13.66C47.73 13.66 49.07 12.33 49.38 10.25ZM57.15 10.01C57.15 7.70 55.65 6.33 53.77 6.33C51.84 6.33 50.22 7.71 50.22 9.98C50.22 12.26 51.62 13.66 53.75 13.66C55.61 13.66 57.15 12.26 57.15 10.01ZM56.28 10.00C56.28 11.87 55.06 12.87 53.75 12.87C52.29 12.87 51.10 11.87 51.10 9.95C51.10 8.05 52.37 7.13 53.76 7.13C55.08 7.13 56.28 8.06 56.28 10.00ZM59.67 13.50L59.67 9.91C59.67 9.21 59.75 8.62 60.02 8.18C60.28 7.71 60.96 7.14 61.98 7.14C62.62 7.14 63.07 7.31 63.38 7.63C63.70 7.98 63.85 8.57 63.85 9.58L63.85 13.50L64.72 13.50L64.72 9.45C64.72 8.36 64.57 7.63 64.23 7.20C63.80 6.65 63.20 6.34 62.17 6.34C60.93 6.34 59.93 7.07 59.67 7.92L59.67 6.51L58.83 6.51L58.83 13.50ZM66.18 12.43C66.82 13.17 67.94 13.66 69.19 13.66C70.91 13.66 71.95 12.91 71.95 11.62C71.95 10.47 71.29 9.95 69.87 9.66L68.96 9.48C67.73 9.24 67.48 8.89 67.48 8.25C67.48 7.71 67.90 7.13 69.17 7.13C70 7.13 70.67 7.38 71.25 7.88L71.78 7.20C71.12 6.58 70.24 6.33 69.24 6.33C67.45 6.33 66.60 7.29 66.60 8.32C66.60 9.41 67.21 9.98 68.47 10.23L69.34 10.42C70.71 10.70 71.09 11.06 71.09 11.69C71.09 12.32 70.62 12.88 69.27 12.88C68.32 12.88 67.40 12.53 66.77 11.77ZM79.98 10.01C79.98 7.70 78.48 6.33 76.61 6.33C74.68 6.33 73.05 7.71 73.05 9.98C73.05 12.26 74.45 13.66 76.58 13.66C78.44 13.66 79.98 12.26 79.98 10.01ZM79.11 10.00C79.11 11.87 77.90 12.87 76.58 12.87C75.12 12.87 73.93 11.87 73.93 9.95C73.93 8.05 75.21 7.13 76.59 7.13C77.91 7.13 79.11 8.06 79.11 10.00ZM82.50 13.50L82.50 3.82L81.66 3.82L81.66 13.50ZM90.79 11.38L89.96 11.20C89.71 12.15 88.87 12.88 87.61 12.88C86.58 12.88 85.09 12.32 85.08 10.19L90.82 10.19C90.82 7.62 89.60 6.33 87.54 6.33C85.68 6.33 84.18 7.71 84.18 9.97C84.18 12.19 85.41 13.66 87.58 13.66C89.29 13.66 90.45 12.71 90.79 11.38ZM85.08 9.51C85.22 7.91 86.28 7.11 87.53 7.11C89.19 7.11 89.82 8.19 89.92 9.51Z"></path></g><!----><g data-v-423bf9ae="" id="45129cbb-6ced-4970-b694-9ee9cf6d8218" transform="matrix(1.0888242721557617,0,0,1.0888242721557617,0.12221477180719376,-0.4377192556858063)" stroke="none" fill="#BB4E47"><path d="M83.9 2.62a5.4 5.4 0 00-7.72 0L62.27 16.53a5.4 5.4 0 000 7.72l13.91 13.92a5.4 5.4 0 007.72 0l13.91-13.92a5.4 5.4 0 000-7.72zM80 33.54L66.89 20.39 80 7.25l13.19 13.14zM18.47 38.3A17.9 17.9 0 10.56 20.4a17.93 17.93 0 0017.91 17.9zm0-29.81A11.9 11.9 0 116.56 20.4 11.92 11.92 0 0118.47 8.49zM45.16 16.15l1.49 1.25H38.8v6h7.85l-1.49 1.24 3.85 4.6 10.58-8.84-10.58-8.85-3.85 4.6zM77.04 42v7.84l-1.25-1.49-4.6 3.85 8.85 10.58 8.85-10.58-4.6-3.85-1.25 1.49V42h-6zM33.89 65.67H3v30.85h30.89zm-6 24.84H9V71.67h18.89zM62.14 81.1A17.9 17.9 0 1080 63.19 17.93 17.93 0 0062.14 81.1zM80 69.19A11.9 11.9 0 1168.14 81.1 11.92 11.92 0 0180 69.19zM48.6 72.25L38.02 81.1l10.58 8.84 3.85-4.6-1.49-1.24h7.85v-6h-7.85l1.49-1.25-3.85-4.6z"></path></g><!----></svg>